 <svg version="1.0" xmlns="http://www.w3.org/2000/svg" width="700.000000pt" height="190.000000pt" viewBox="0 0 700.000000 190.000000" preserveAspectRatio="xMidYMid meet">
<metadata>
Created by potrace 1.12, written by Peter Selinger 2001-2015
</metadata>
<g transform="translate(0.000000,190.000000) scale(0.100000,-0.100000)" fill="#000000" stroke="none">
<path d="M4807 1304 c-4 -4 -7 -119 -7 -256 l0 -248 45 0 45 0 0 134 c0 149
-1 146 70 146 22 0 43 -6 50 -15 9 -10 15 -60 18 -140 l5 -125 43 0 44 0 -1
133 c0 74 -5 147 -12 167 -16 48 -66 73 -127 65 -93 -12 -84 -18 -90 65 l-5
75 -35 3 c-20 2 -39 0 -43 -4z"></path>
<path d="M2631 1282 c-5 -10 -13 -50 -16 -90 l-8 -72 36 0 c33 0 37 3 46 38 6
20 17 58 25 84 7 26 11 49 8 52 -3 4 -22 6 -43 6 -27 0 -41 -6 -48 -18z"></path>
<path d="M640 1045 l0 -245 50 0 50 0 0 100 0 100 95 0 95 0 0 -100 0 -100 50
0 50 0 0 245 0 245 -50 0 -50 0 0 -105 0 -106 -92 3 -93 3 -3 103 -3 102 -49
0 -50 0 0 -245z"></path>
<path d="M3189 1285 c-3 -2 13 -113 35 -245 l40 -240 77 0 78 0 10 53 c6 28
20 107 32 175 13 67 25 122 29 122 3 0 19 -78 36 -172 l30 -173 79 0 79 0 38
215 c20 118 37 228 38 243 0 27 -1 28 -47 25 l-48 -3 -26 -188 c-26 -179 -32
-207 -44 -195 -3 3 -22 89 -43 192 l-37 186 -55 0 -56 0 -34 -180 c-32 -172
-43 -211 -54 -199 -3 3 -17 79 -31 170 -37 240 -29 219 -79 219 -24 0 -45 -2
-47 -5z"></path>
<path d="M5320 1285 c0 -3 30 -67 67 -143 66 -135 67 -138 73 -237 l5 -100 48
-3 47 -3 0 91 0 90 75 150 c41 82 75 152 75 155 0 3 -22 5 -50 5 l-50 0 -49
-97 -49 -98 -46 98 -45 97 -51 0 c-27 0 -50 -2 -50 -5z"></path>
<path d="M2848 1252 c-37 -3 -38 -4 -38 -44 0 -31 -4 -41 -20 -45 -16 -4 -20
-14 -20 -43 0 -29 4 -39 20 -43 18 -5 20 -14 20 -111 0 -58 5 -116 11 -129 19
-42 72 -56 148 -41 30 6 32 9 29 43 -3 34 -5 36 -41 36 -23 0 -42 6 -47 15 -6
8 -9 53 -8 100 l3 85 41 3 c40 3 42 5 46 38 2 19 2 37 -1 39 -2 3 -24 5 -48 5
l-43 0 0 44 c0 25 -3 46 -7 48 -5 2 -25 2 -45 0z"></path>
<path d="M4243 1254 c-8 -3 -13 -24 -13 -49 0 -34 -4 -44 -20 -48 -15 -4 -20
-14 -20 -41 0 -29 4 -36 20 -36 19 0 20 -7 20 -100 0 -150 24 -190 113 -190
65 0 78 9 75 49 -3 33 -6 36 -33 36 -51 1 -55 8 -55 111 l0 94 45 0 45 0 0 40
0 40 -44 0 -45 0 -3 48 c-3 46 -4 47 -38 49 -19 1 -41 0 -47 -3z"></path>
<path d="M6087 1253 c-4 -3 -7 -25 -7 -49 0 -33 -4 -43 -20 -47 -28 -7 -29
-77 -1 -77 16 0 19 -11 23 -115 6 -129 18 -159 69 -170 17 -4 51 -4 75 0 45 6
45 7 42 43 -3 32 -6 37 -26 35 -13 -2 -32 2 -43 7 -17 9 -19 22 -19 105 l0 95
45 0 45 0 0 40 0 40 -45 0 -45 0 0 44 c0 31 -5 46 -16 50 -21 8 -69 8 -77 -1z"></path>
<path d="M1210 1165 c-8 -2 -32 -6 -52 -10 -35 -5 -38 -8 -38 -40 l0 -34 83 6
c87 6 101 1 109 -42 3 -17 -5 -21 -57 -28 -96 -14 -105 -17 -131 -42 -18 -18
-24 -35 -24 -65 0 -93 58 -133 162 -112 30 6 82 8 116 5 l62 -6 0 31 c0 17 -6
32 -15 36 -12 4 -15 26 -15 110 0 117 -8 148 -44 171 -24 16 -123 28 -156 20z
m110 -239 c0 -39 -12 -52 -60 -60 -47 -8 -62 4 -58 45 3 36 21 46 86 48 30 1
32 -1 32 -33z"></path>
<path d="M1933 1160 c-70 -22 -110 -109 -99 -220 12 -129 79 -166 261 -142 47
7 50 9 50 37 l0 30 -98 5 c-100 5 -116 12 -117 51 0 24 21 29 125 29 86 0 94
2 100 20 8 26 -3 97 -21 132 -26 51 -128 80 -201 58z m117 -89 c5 -11 10 -29
10 -40 0 -19 -6 -21 -65 -21 -62 0 -65 1 -65 24 0 36 26 56 70 56 29 0 42 -5
50 -19z"></path>
<path d="M2360 1156 c-22 -9 -39 -10 -47 -4 -6 5 -29 8 -50 6 l-38 -3 -3 -177
-2 -178 50 0 50 0 0 134 c0 147 -1 146 65 146 55 0 65 -25 65 -162 l0 -118 45
0 45 0 0 135 c0 161 -11 198 -64 220 -42 18 -69 18 -116 1z"></path>
<path d="M3908 1161 c-58 -8 -71 -20 -63 -54 7 -25 8 -25 79 -20 83 6 116 -5
116 -41 0 -22 -6 -24 -81 -34 -105 -13 -129 -33 -129 -108 0 -41 5 -59 24 -81
22 -25 30 -28 83 -26 32 1 97 2 146 2 82 1 87 2 87 22 0 11 -9 32 -20 46 -17
22 -20 41 -20 132 0 104 -1 108 -28 134 -22 21 -40 28 -87 31 -33 3 -81 1
-107 -3z m130 -243 c-3 -42 -4 -43 -45 -52 -49 -10 -73 3 -73 39 0 35 28 51
93 54 27 1 28 -1 25 -41z"></path>
<path d="M4562 1161 c-84 -22 -120 -124 -91 -259 19 -89 75 -120 193 -107 l66
7 0 39 0 39 -69 0 c-86 0 -101 15 -101 100 0 85 15 100 101 100 l69 0 0 34 c0
19 -4 37 -8 40 -16 10 -128 15 -160 7z"></path>
<path d="M5786 1160 c-73 -22 -112 -101 -104 -210 6 -75 22 -109 65 -137 22
-15 47 -18 131 -17 56 1 104 3 106 5 2 2 6 18 8 34 l3 30 -98 5 c-100 5 -116
12 -117 51 0 25 25 30 124 28 l90 -2 8 29 c12 41 -9 118 -39 148 -40 41 -112
55 -177 36z m114 -89 c5 -11 10 -29 10 -40 0 -19 -6 -21 -65 -21 -59 0 -65 2
-65 21 0 43 18 59 65 59 34 0 47 -5 55 -19z"></path>
<path d="M1460 1155 c0 -3 18 -81 40 -174 22 -92 40 -171 40 -175 0 -4 39 -5
87 -4 l88 3 41 170 c23 94 39 173 37 178 -2 4 -22 7 -44 7 -47 0 -46 2 -79
-155 -22 -107 -33 -135 -46 -123 -5 6 -63 250 -64 271 0 8 -100 10 -100 2z"></path>
</g>
</svg>